{
    "asset" : {
        "generator" : "Khronos glTF Blender I/O v1.5.17",
        "version" : "2.0"
    },
    "scene" : 0,
    "scenes" : [
        {
            "name" : "Scene",
            "nodes" : [
                1
            ]
        }
    ],
    "nodes" : [
        {
            "mesh" : 0,
            "name" : "Soldier_15"
        },
        {
            "children" : [
                0
            ],
            "name" : "group675",
            "rotation" : [
                0.7071068286895752,
                0,
                0,
                0.7071067094802856
            ],
            "scale" : [
                0.009999999776482582,
                0.009999999776482582,
                0.009999999776482582
            ]
        }
    ],
    "materials" : [
        {
            "doubleSided" : true,
            "name" : "PG_Mat02",
            "pbrMetallicRoughness" : {
                "baseColorFactor" : [
                    0.5649999976158142,
                    0.3703913986682892,
                    0.1954900026321411,
                    1
                ],
                "metallicFactor" : 0,
                "roughnessFactor" : 0.5527864098548889
            }
        },
        {
            "doubleSided" : true,
            "name" : "PG_Mat07",
            "pbrMetallicRoughness" : {
                "baseColorFactor" : [
                    0.23577235639095306,
                    0.23577235639095306,
                    0.23577235639095306,
                    1
                ],
                "metallicFactor" : 0,
                "roughnessFactor" : 0.5527864098548889
            }
        },
        {
            "doubleSided" : true,
            "name" : "PG_Mat01",
            "pbrMetallicRoughness" : {
                "baseColorFactor" : [
                    0,
                    0,
                    0,
                    1
                ],
                "metallicFactor" : 0,
                "roughnessFactor" : 0.5527864098548889
            }
        },
        {
            "doubleSided" : true,
            "name" : "PG_Mat08",
            "pbrMetallicRoughness" : {
                "baseColorFactor" : [
                    0.10000000149011612,
                    0.06369999796152115,
                    0.03590000048279762,
                    1
                ],
                "metallicFactor" : 0,
                "roughnessFactor" : 0.5527864098548889
            }
        },
        {
            "doubleSided" : true,
            "name" : "Gold_01_Mat",
            "pbrMetallicRoughness" : {
                "baseColorFactor" : [
                    1,
                    0.6538499593734741,
                    0,
                    1
                ],
                "metallicFactor" : 0,
                "roughnessFactor" : 0.5527864098548889
            }
        },
        {
            "doubleSided" : true,
            "name" : "PG_Mat04",
            "pbrMetallicRoughness" : {
                "baseColorFactor" : [
                    0.3700000047683716,
                    0.20642997324466705,
                    0.06623000651597977,
                    1
                ],
                "metallicFactor" : 0,
                "roughnessFactor" : 0.5527864098548889
            }
        },
        {
            "doubleSided" : true,
            "name" : "lambert1",
            "pbrMetallicRoughness" : {
                "baseColorFactor" : [
                    0.5,
                    0.5,
                    0.5,
                    1
                ],
                "metallicFactor" : 0,
                "roughnessFactor" : 0.5527864098548889
            }
        },
        {
            "doubleSided" : true,
            "name" : "Stendardi_Mat3",
            "pbrMetallicRoughness" : {
                "metallicFactor" : 0,
                "roughnessFactor" : 0.5527864098548889
            }
        }
    ],
    "meshes" : [
        {
            "name" : "\u041c\u0435\u0448",
            "primitives" : [
                {
                    "attributes" : {
                        "POSITION" : 0,
                        "NORMAL" : 1,
                        "TEXCOORD_0" : 2
                    },
                    "indices" : 3,
                    "material" : 0
                },
                {
                    "attributes" : {
                        "POSITION" : 4,
                        "NORMAL" : 5,
                        "TEXCOORD_0" : 6
                    },
                    "indices" : 7,
                    "material" : 1
                },
                {
                    "attributes" : {
                        "POSITION" : 8,
                        "NORMAL" : 9,
                        "TEXCOORD_0" : 10
                    },
                    "indices" : 11,
                    "material" : 2
                },
                {
                    "attributes" : {
                        "POSITION" : 12,
                        "NORMAL" : 13,
                        "TEXCOORD_0" : 14
                    },
                    "indices" : 15,
                    "material" : 3
                },
                {
                    "attributes" : {
                        "POSITION" : 16,
                        "NORMAL" : 17,
                        "TEXCOORD_0" : 18
                    },
                    "indices" : 19,
                    "material" : 4
                },
                {
                    "attributes" : {
                        "POSITION" : 20,
                        "NORMAL" : 21,
                        "TEXCOORD_0" : 22
                    },
                    "indices" : 23,
                    "material" : 5
                },
                {
                    "attributes" : {
                        "POSITION" : 24,
                        "NORMAL" : 25,
                        "TEXCOORD_0" : 26
                    },
                    "indices" : 27,
                    "material" : 6
                },
                {
                    "attributes" : {
                        "POSITION" : 28,
                        "NORMAL" : 29,
                        "TEXCOORD_0" : 30
                    },
                    "indices" : 31,
                    "material" : 7
                }
            ]
        }
    ],
    "accessors" : [
        {
            "bufferView" : 0,
            "componentType" : 5126,
            "count" : 180,
            "max" : [
                25.624679565429688,
                23.8330078125,
                -107.97688293457031
            ],
            "min" : [
                -25.624649047851562,
                -25.0621337890625,
                -156.6785125732422
            ],
            "type" : "VEC3"
        },
        {
            "bufferView" : 1,
            "componentType" : 5126,
            "count" : 180,
            "type" : "VEC3"
        },
        {
            "bufferView" : 2,
            "componentType" : 5126,
            "count" : 180,
            "type" : "VEC2"
        },
        {
            "bufferView" : 3,
            "componentType" : 5123,
            "count" : 264,
            "type" : "SCALAR"
        },
        {
            "bufferView" : 4,
            "componentType" : 5126,
            "count" : 1144,
            "max" : [
                46.25697326660156,
                29.04443359375,
                0.39412689208984375
            ],
            "min" : [
                -46.25697326660156,
                -29.04443359375,
                -167.8609161376953
            ],
            "type" : "VEC3"
        },
        {
            "bufferView" : 5,
            "componentType" : 5126,
            "count" : 1144,
            "type" : "VEC3"
        },
        {
            "bufferView" : 6,
            "componentType" : 5126,
            "count" : 1144,
            "type" : "VEC2"
        },
        {
            "bufferView" : 7,
            "componentType" : 5123,
            "count" : 1902,
            "type" : "SCALAR"
        },
        {
            "bufferView" : 8,
            "componentType" : 5126,
            "count" : 248,
            "max" : [
                41.64494323730469,
                16.144775390625,
                -16.396499633789062
            ],
            "min" : [
                -41.64485168457031,
                -15.29296875,
                -139.78855895996094
            ],
            "type" : "VEC3"
        },
        {
            "bufferView" : 9,
            "componentType" : 5126,
            "count" : 248,
            "type" : "VEC3"
        },
        {
            "bufferView" : 10,
            "componentType" : 5126,
            "count" : 248,
            "type" : "VEC2"
        },
        {
            "bufferView" : 11,
            "componentType" : 5123,
            "count" : 372,
            "type" : "SCALAR"
        },
        {
            "bufferView" : 12,
            "componentType" : 5126,
            "count" : 132,
            "max" : [
                19.129013061523438,
                23.34033203125,
                -89.40325927734375
            ],
            "min" : [
                -19.128952026367188,
                6.8524169921875,
                -146.15692138671875
            ],
            "type" : "VEC3"
        },
        {
            "bufferView" : 13,
            "componentType" : 5126,
            "count" : 132,
            "type" : "VEC3"
        },
        {
            "bufferView" : 14,
            "componentType" : 5126,
            "count" : 132,
            "type" : "VEC2"
        },
        {
            "bufferView" : 15,
            "componentType" : 5123,
            "count" : 216,
            "type" : "SCALAR"
        },
        {
            "bufferView" : 16,
            "componentType" : 5126,
            "count" : 60,
            "max" : [
                4.3928070068359375,
                -1.8916015625,
                -166.37339782714844
            ],
            "min" : [
                -4.3928375244140625,
                -10.681640625,
                -184.9219512939453
            ],
            "type" : "VEC3"
        },
        {
            "bufferView" : 17,
            "componentType" : 5126,
            "count" : 60,
            "type" : "VEC3"
        },
        {
            "bufferView" : 18,
            "componentType" : 5126,
            "count" : 60,
            "type" : "VEC2"
        },
        {
            "bufferView" : 19,
            "componentType" : 5123,
            "count" : 108,
            "type" : "SCALAR"
        },
        {
            "bufferView" : 20,
            "componentType" : 5126,
            "count" : 108,
            "max" : [
                15.117507934570312,
                10.8177490234375,
                -54.07186508178711
            ],
            "min" : [
                -14.370346069335938,
                -18.4420166015625,
                -67.44677734375
            ],
            "type" : "VEC3"
        },
        {
            "bufferView" : 21,
            "componentType" : 5126,
            "count" : 108,
            "type" : "VEC3"
        },
        {
            "bufferView" : 22,
            "componentType" : 5126,
            "count" : 108,
            "type" : "VEC2"
        },
        {
            "bufferView" : 23,
            "componentType" : 5123,
            "count" : 156,
            "type" : "SCALAR"
        },
        {
            "bufferView" : 24,
            "componentType" : 5126,
            "count" : 48,
            "max" : [
                7.2093963623046875,
                11.91064453125,
                -56.261802673339844
            ],
            "min" : [
                -7.2093658447265625,
                4.5538330078125,
                -68.33771514892578
            ],
            "type" : "VEC3"
        },
        {
            "bufferView" : 25,
            "componentType" : 5126,
            "count" : 48,
            "type" : "VEC3"
        },
        {
            "bufferView" : 26,
            "componentType" : 5126,
            "count" : 48,
            "type" : "VEC2"
        },
        {
            "bufferView" : 27,
            "componentType" : 5123,
            "count" : 96,
            "type" : "SCALAR"
        },
        {
            "bufferView" : 28,
            "componentType" : 5126,
            "count" : 40,
            "max" : [
                14.097549438476562,
                8.8973388671875,
                -23.613426208496094
            ],
            "min" : [
                -14.097518920898438,
                -19.1505126953125,
                -59.997066497802734
            ],
            "type" : "VEC3"
        },
        {
            "bufferView" : 29,
            "componentType" : 5126,
            "count" : 40,
            "type" : "VEC3"
        },
        {
            "bufferView" : 30,
            "componentType" : 5126,
            "count" : 40,
            "type" : "VEC2"
        },
        {
            "bufferView" : 31,
            "componentType" : 5123,
            "count" : 72,
            "type" : "SCALAR"
        }
    ],
    "bufferViews" : [
        {
            "buffer" : 0,
            "byteLength" : 2160,
            "byteOffset" : 0
        },
        {
            "buffer" : 0,
            "byteLength" : 2160,
            "byteOffset" : 2160
        },
        {
            "buffer" : 0,
            "byteLength" : 1440,
            "byteOffset" : 4320
        },
        {
            "buffer" : 0,
            "byteLength" : 528,
            "byteOffset" : 5760
        },
        {
            "buffer" : 0,
            "byteLength" : 13728,
            "byteOffset" : 6288
        },
        {
            "buffer" : 0,
            "byteLength" : 13728,
            "byteOffset" : 20016
        },
        {
            "buffer" : 0,
            "byteLength" : 9152,
            "byteOffset" : 33744
        },
        {
            "buffer" : 0,
            "byteLength" : 3804,
            "byteOffset" : 42896
        },
        {
            "buffer" : 0,
            "byteLength" : 2976,
            "byteOffset" : 46700
        },
        {
            "buffer" : 0,
            "byteLength" : 2976,
            "byteOffset" : 49676
        },
        {
            "buffer" : 0,
            "byteLength" : 1984,
            "byteOffset" : 52652
        },
        {
            "buffer" : 0,
            "byteLength" : 744,
            "byteOffset" : 54636
        },
        {
            "buffer" : 0,
            "byteLength" : 1584,
            "byteOffset" : 55380
        },
        {
            "buffer" : 0,
            "byteLength" : 1584,
            "byteOffset" : 56964
        },
        {
            "buffer" : 0,
            "byteLength" : 1056,
            "byteOffset" : 58548
        },
        {
            "buffer" : 0,
            "byteLength" : 432,
            "byteOffset" : 59604
        },
        {
            "buffer" : 0,
            "byteLength" : 720,
            "byteOffset" : 60036
        },
        {
            "buffer" : 0,
            "byteLength" : 720,
            "byteOffset" : 60756
        },
        {
            "buffer" : 0,
            "byteLength" : 480,
            "byteOffset" : 61476
        },
        {
            "buffer" : 0,
            "byteLength" : 216,
            "byteOffset" : 61956
        },
        {
            "buffer" : 0,
            "byteLength" : 1296,
            "byteOffset" : 62172
        },
        {
            "buffer" : 0,
            "byteLength" : 1296,
            "byteOffset" : 63468
        },
        {
            "buffer" : 0,
            "byteLength" : 864,
            "byteOffset" : 64764
        },
        {
            "buffer" : 0,
            "byteLength" : 312,
            "byteOffset" : 65628
        },
        {
            "buffer" : 0,
            "byteLength" : 576,
            "byteOffset" : 65940
        },
        {
            "buffer" : 0,
            "byteLength" : 576,
            "byteOffset" : 66516
        },
        {
            "buffer" : 0,
            "byteLength" : 384,
            "byteOffset" : 67092
        },
        {
            "buffer" : 0,
            "byteLength" : 192,
            "byteOffset" : 67476
        },
        {
            "buffer" : 0,
            "byteLength" : 480,
            "byteOffset" : 67668
        },
        {
            "buffer" : 0,
            "byteLength" : 480,
            "byteOffset" : 68148
        },
        {
            "buffer" : 0,
            "byteLength" : 320,
            "byteOffset" : 68628
        },
        {
            "buffer" : 0,
            "byteLength" : 144,
            "byteOffset" : 68948
        }
    ],
    "buffers" : [
        {
            "byteLength" : 69092,
            "uri" : "data:application/octet-stream;base64,"
        }
    ]
}
