{
    "asset" : {
        "generator" : "Khronos glTF Blender I/O v1.5.17",
        "version" : "2.0"
    },
    "scene" : 0,
    "scenes" : [
        {
            "name" : "Scene",
            "nodes" : [
                0
            ]
        }
    ],
    "nodes" : [
        {
            "mesh" : 0,
            "name" : "pCube3448",
            "rotation" : [
                0.7071068286895752,
                0,
                0,
                0.7071067094802856
            ],
            "scale" : [
                0.009999999776482582,
                0.009999999776482582,
                0.009999999776482582
            ]
        }
    ],
    "materials" : [
        {
            "doubleSided" : true,
            "name" : "Legno02_Mat",
            "pbrMetallicRoughness" : {
                "baseColorFactor" : [
                    0.421999990940094,
                    0.2647548019886017,
                    0.12997600436210632,
                    1
                ],
                "metallicFactor" : 0,
                "roughnessFactor" : 0.5527864098548889
            }
        },
        {
            "doubleSided" : true,
            "name" : "Legno01_Mat",
            "pbrMetallicRoughness" : {
                "baseColorFactor" : [
                    0.23800000548362732,
                    0.15777572989463806,
                    0.09758000820875168,
                    1
                ],
                "metallicFactor" : 0,
                "roughnessFactor" : 0.5527864098548889
            }
        },
        {
            "doubleSided" : true,
            "name" : "Casa_01_Mat",
            "pbrMetallicRoughness" : {
                "baseColorFactor" : [
                    0.7020000219345093,
                    0.4865610599517822,
                    0.2611439824104309,
                    1
                ],
                "metallicFactor" : 0,
                "roughnessFactor" : 0.5527864098548889
            }
        },
        {
            "doubleSided" : true,
            "name" : "Mura_03_TileMat",
            "pbrMetallicRoughness" : {
                "metallicFactor" : 0,
                "roughnessFactor" : 0.5527864098548889
            }
        },
        {
            "doubleSided" : true,
            "name" : "RocciaMura_02_Mat",
            "pbrMetallicRoughness" : {
                "baseColorFactor" : [
                    0.21138212084770203,
                    0.21138212084770203,
                    0.21138212084770203,
                    1
                ],
                "metallicFactor" : 0,
                "roughnessFactor" : 0.5527864098548889
            }
        },
        {
            "doubleSided" : true,
            "name" : "Zone_Ombra_Mat",
            "pbrMetallicRoughness" : {
                "baseColorFactor" : [
                    0.02489626593887806,
                    0.02489626593887806,
                    0.02489626593887806,
                    1
                ],
                "metallicFactor" : 0,
                "roughnessFactor" : 0.5527864098548889
            }
        },
        {
            "doubleSided" : true,
            "name" : "Legno04_Mat",
            "pbrMetallicRoughness" : {
                "baseColorFactor" : [
                    0.3658536672592163,
                    0.24794824421405792,
                    0.1594773679971695,
                    1
                ],
                "metallicFactor" : 0,
                "roughnessFactor" : 0.5527864098548889
            }
        },
        {
            "doubleSided" : true,
            "name" : "Glass_01_Mat",
            "pbrMetallicRoughness" : {
                "baseColorFactor" : [
                    0.22436071932315826,
                    0.3029620051383972,
                    0.3475022614002228,
                    1
                ],
                "metallicFactor" : 0,
                "roughnessFactor" : 0.5527864098548889
            }
        },
        {
            "doubleSided" : true,
            "name" : "Ferro03_Mat",
            "pbrMetallicRoughness" : {
                "baseColorFactor" : [
                    0.2720000147819519,
                    0.2720000147819519,
                    0.2720000147819519,
                    1
                ],
                "metallicFactor" : 0,
                "roughnessFactor" : 0.5527864098548889
            }
        }
    ],
    "meshes" : [
        {
            "name" : "\u041c\u0435\u0448",
            "primitives" : [
                {
                    "attributes" : {
                        "POSITION" : 0,
                        "NORMAL" : 1,
                        "TEXCOORD_0" : 2
                    },
                    "indices" : 3,
                    "material" : 0
                },
                {
                    "attributes" : {
                        "POSITION" : 4,
                        "NORMAL" : 5,
                        "TEXCOORD_0" : 6
                    },
                    "indices" : 7,
                    "material" : 1
                },
                {
                    "attributes" : {
                        "POSITION" : 8,
                        "NORMAL" : 9,
                        "TEXCOORD_0" : 10
                    },
                    "indices" : 11,
                    "material" : 2
                },
                {
                    "attributes" : {
                        "POSITION" : 12,
                        "NORMAL" : 13,
                        "TEXCOORD_0" : 14
                    },
                    "indices" : 15,
                    "material" : 3
                },
                {
                    "attributes" : {
                        "POSITION" : 16,
                        "NORMAL" : 17,
                        "TEXCOORD_0" : 18
                    },
                    "indices" : 19,
                    "material" : 4
                },
                {
                    "attributes" : {
                        "POSITION" : 20,
                        "NORMAL" : 21,
                        "TEXCOORD_0" : 22
                    },
                    "indices" : 23,
                    "material" : 5
                },
                {
                    "attributes" : {
                        "POSITION" : 24,
                        "NORMAL" : 25,
                        "TEXCOORD_0" : 26
                    },
                    "indices" : 27,
                    "material" : 6
                },
                {
                    "attributes" : {
                        "POSITION" : 28,
                        "NORMAL" : 29,
                        "TEXCOORD_0" : 30
                    },
                    "indices" : 31,
                    "material" : 7
                },
                {
                    "attributes" : {
                        "POSITION" : 32,
                        "NORMAL" : 33,
                        "TEXCOORD_0" : 34
                    },
                    "indices" : 35,
                    "material" : 8
                }
            ]
        }
    ],
    "accessors" : [
        {
            "bufferView" : 0,
            "componentType" : 5126,
            "count" : 4978,
            "max" : [
                866.29541015625,
                497.9427490234375,
                0.8530426025390625
            ],
            "min" : [
                -924.8471069335938,
                -684.983154296875,
                -1806.896240234375
            ],
            "type" : "VEC3"
        },
        {
            "bufferView" : 1,
            "componentType" : 5126,
            "count" : 4978,
            "type" : "VEC3"
        },
        {
            "bufferView" : 2,
            "componentType" : 5126,
            "count" : 4978,
            "type" : "VEC2"
        },
        {
            "bufferView" : 3,
            "componentType" : 5123,
            "count" : 7896,
            "type" : "SCALAR"
        },
        {
            "bufferView" : 4,
            "componentType" : 5126,
            "count" : 960,
            "max" : [
                870.5855102539062,
                349.17742919921875,
                -93.847412109375
            ],
            "min" : [
                -922.593994140625,
                -557.0535278320312,
                -1557.0611572265625
            ],
            "type" : "VEC3"
        },
        {
            "bufferView" : 5,
            "componentType" : 5126,
            "count" : 960,
            "type" : "VEC3"
        },
        {
            "bufferView" : 6,
            "componentType" : 5126,
            "count" : 960,
            "type" : "VEC2"
        },
        {
            "bufferView" : 7,
            "componentType" : 5123,
            "count" : 1440,
            "type" : "SCALAR"
        },
        {
            "bufferView" : 8,
            "componentType" : 5126,
            "count" : 478,
            "max" : [
                833.16943359375,
                478.8255615234375,
                -282.20953369140625
            ],
            "min" : [
                -894.5322265625,
                -665.865966796875,
                -1716.0791015625
            ],
            "type" : "VEC3"
        },
        {
            "bufferView" : 9,
            "componentType" : 5126,
            "count" : 478,
            "type" : "VEC3"
        },
        {
            "bufferView" : 10,
            "componentType" : 5126,
            "count" : 478,
            "type" : "VEC2"
        },
        {
            "bufferView" : 11,
            "componentType" : 5123,
            "count" : 1086,
            "type" : "SCALAR"
        },
        {
            "bufferView" : 12,
            "componentType" : 5126,
            "count" : 125,
            "max" : [
                801.205078125,
                286.34326171875,
                7.28298255125992e-05
            ],
            "min" : [
                -862.5693359375,
                -491.4014892578125,
                -2214.384521484375
            ],
            "type" : "VEC3"
        },
        {
            "bufferView" : 13,
            "componentType" : 5126,
            "count" : 125,
            "type" : "VEC3"
        },
        {
            "bufferView" : 14,
            "componentType" : 5126,
            "count" : 125,
            "type" : "VEC2"
        },
        {
            "bufferView" : 15,
            "componentType" : 5123,
            "count" : 201,
            "type" : "SCALAR"
        },
        {
            "bufferView" : 16,
            "componentType" : 5126,
            "count" : 132,
            "max" : [
                583.7635498046875,
                123.226806640625,
                -1827.856201171875
            ],
            "min" : [
                -596.4291381835938,
                -316.414306640625,
                -2278.937255859375
            ],
            "type" : "VEC3"
        },
        {
            "bufferView" : 17,
            "componentType" : 5126,
            "count" : 132,
            "type" : "VEC3"
        },
        {
            "bufferView" : 18,
            "componentType" : 5126,
            "count" : 132,
            "type" : "VEC2"
        },
        {
            "bufferView" : 19,
            "componentType" : 5123,
            "count" : 234,
            "type" : "SCALAR"
        },
        {
            "bufferView" : 20,
            "componentType" : 5126,
            "count" : 12,
            "max" : [
                552.004638671875,
                91.467041015625,
                -1866.5089111328125
            ],
            "min" : [
                -564.6695556640625,
                -284.655029296875,
                -2248.391845703125
            ],
            "type" : "VEC3"
        },
        {
            "bufferView" : 21,
            "componentType" : 5126,
            "count" : 12,
            "type" : "VEC3"
        },
        {
            "bufferView" : 22,
            "componentType" : 5126,
            "count" : 12,
            "type" : "VEC2"
        },
        {
            "bufferView" : 23,
            "componentType" : 5123,
            "count" : 18,
            "type" : "SCALAR"
        },
        {
            "bufferView" : 24,
            "componentType" : 5126,
            "count" : 12,
            "max" : [
                502.42156982421875,
                183.5367889404297,
                1.954147458076477
            ],
            "min" : [
                -721.0529174804688,
                -366.999267578125,
                -237.08995056152344
            ],
            "type" : "VEC3"
        },
        {
            "bufferView" : 25,
            "componentType" : 5126,
            "count" : 12,
            "type" : "VEC3"
        },
        {
            "bufferView" : 26,
            "componentType" : 5126,
            "count" : 12,
            "type" : "VEC2"
        },
        {
            "bufferView" : 27,
            "componentType" : 5123,
            "count" : 18,
            "type" : "SCALAR"
        },
        {
            "bufferView" : 28,
            "componentType" : 5126,
            "count" : 52,
            "max" : [
                813.089111328125,
                293.98150634765625,
                -91.8931655883789
            ],
            "min" : [
                -864.2081909179688,
                -499.55712890625,
                -1557.0611572265625
            ],
            "type" : "VEC3"
        },
        {
            "bufferView" : 29,
            "componentType" : 5126,
            "count" : 52,
            "type" : "VEC3"
        },
        {
            "bufferView" : 30,
            "componentType" : 5126,
            "count" : 52,
            "type" : "VEC2"
        },
        {
            "bufferView" : 31,
            "componentType" : 5123,
            "count" : 78,
            "type" : "SCALAR"
        },
        {
            "bufferView" : 32,
            "componentType" : 5126,
            "count" : 60,
            "max" : [
                480.8006286621094,
                204.9033203125,
                -77.89353942871094
            ],
            "min" : [
                -652.346923828125,
                -388.3657531738281,
                -91.67266845703125
            ],
            "type" : "VEC3"
        },
        {
            "bufferView" : 33,
            "componentType" : 5126,
            "count" : 60,
            "type" : "VEC3"
        },
        {
            "bufferView" : 34,
            "componentType" : 5126,
            "count" : 60,
            "type" : "VEC2"
        },
        {
            "bufferView" : 35,
            "componentType" : 5123,
            "count" : 90,
            "type" : "SCALAR"
        }
    ],
    "bufferViews" : [
        {
            "buffer" : 0,
            "byteLength" : 59736,
            "byteOffset" : 0
        },
        {
            "buffer" : 0,
            "byteLength" : 59736,
            "byteOffset" : 59736
        },
        {
            "buffer" : 0,
            "byteLength" : 39824,
            "byteOffset" : 119472
        },
        {
            "buffer" : 0,
            "byteLength" : 15792,
            "byteOffset" : 159296
        },
        {
            "buffer" : 0,
            "byteLength" : 11520,
            "byteOffset" : 175088
        },
        {
            "buffer" : 0,
            "byteLength" : 11520,
            "byteOffset" : 186608
        },
        {
            "buffer" : 0,
            "byteLength" : 7680,
            "byteOffset" : 198128
        },
        {
            "buffer" : 0,
            "byteLength" : 2880,
            "byteOffset" : 205808
        },
        {
            "buffer" : 0,
            "byteLength" : 5736,
            "byteOffset" : 208688
        },
        {
            "buffer" : 0,
            "byteLength" : 5736,
            "byteOffset" : 214424
        },
        {
            "buffer" : 0,
            "byteLength" : 3824,
            "byteOffset" : 220160
        },
        {
            "buffer" : 0,
            "byteLength" : 2172,
            "byteOffset" : 223984
        },
        {
            "buffer" : 0,
            "byteLength" : 1500,
            "byteOffset" : 226156
        },
        {
            "buffer" : 0,
            "byteLength" : 1500,
            "byteOffset" : 227656
        },
        {
            "buffer" : 0,
            "byteLength" : 1000,
            "byteOffset" : 229156
        },
        {
            "buffer" : 0,
            "byteLength" : 402,
            "byteOffset" : 230156
        },
        {
            "buffer" : 0,
            "byteLength" : 1584,
            "byteOffset" : 230560
        },
        {
            "buffer" : 0,
            "byteLength" : 1584,
            "byteOffset" : 232144
        },
        {
            "buffer" : 0,
            "byteLength" : 1056,
            "byteOffset" : 233728
        },
        {
            "buffer" : 0,
            "byteLength" : 468,
            "byteOffset" : 234784
        },
        {
            "buffer" : 0,
            "byteLength" : 144,
            "byteOffset" : 235252
        },
        {
            "buffer" : 0,
            "byteLength" : 144,
            "byteOffset" : 235396
        },
        {
            "buffer" : 0,
            "byteLength" : 96,
            "byteOffset" : 235540
        },
        {
            "buffer" : 0,
            "byteLength" : 36,
            "byteOffset" : 235636
        },
        {
            "buffer" : 0,
            "byteLength" : 144,
            "byteOffset" : 235672
        },
        {
            "buffer" : 0,
            "byteLength" : 144,
            "byteOffset" : 235816
        },
        {
            "buffer" : 0,
            "byteLength" : 96,
            "byteOffset" : 235960
        },
        {
            "buffer" : 0,
            "byteLength" : 36,
            "byteOffset" : 236056
        },
        {
            "buffer" : 0,
            "byteLength" : 624,
            "byteOffset" : 236092
        },
        {
            "buffer" : 0,
            "byteLength" : 624,
            "byteOffset" : 236716
        },
        {
            "buffer" : 0,
            "byteLength" : 416,
            "byteOffset" : 237340
        },
        {
            "buffer" : 0,
            "byteLength" : 156,
            "byteOffset" : 237756
        },
        {
            "buffer" : 0,
            "byteLength" : 720,
            "byteOffset" : 237912
        },
        {
            "buffer" : 0,
            "byteLength" : 720,
            "byteOffset" : 238632
        },
        {
            "buffer" : 0,
            "byteLength" : 480,
            "byteOffset" : 239352
        },
        {
            "buffer" : 0,
            "byteLength" : 180,
            "byteOffset" : 239832
        }
    ],
    "buffers" : [
        {
            "byteLength" : 240012,
            "uri" : "data:application/octet-stream;base64,"
        }
    ]
}
