{
    "asset" : {
        "generator" : "Khronos glTF Blender I/O v1.5.17",
        "version" : "2.0"
    },
    "scene" : 0,
    "scenes" : [
        {
            "name" : "Scene",
            "nodes" : [
                0
            ]
        }
    ],
    "nodes" : [
        {
            "mesh" : 0,
            "name" : "pCube4926",
            "rotation" : [
                0.7071068286895752,
                0,
                0,
                0.7071067094802856
            ],
            "scale" : [
                0.009999999776482582,
                0.009999999776482582,
                0.009999999776482582
            ]
        }
    ],
    "materials" : [
        {
            "doubleSided" : true,
            "name" : "Legno02_Mat",
            "pbrMetallicRoughness" : {
                "baseColorFactor" : [
                    0.421999990940094,
                    0.2647548019886017,
                    0.12997600436210632,
                    1
                ],
                "metallicFactor" : 0,
                "roughnessFactor" : 0.5527864098548889
            }
        },
        {
            "doubleSided" : true,
            "name" : "Legno01_Mat",
            "pbrMetallicRoughness" : {
                "baseColorFactor" : [
                    0.23800000548362732,
                    0.15777572989463806,
                    0.09758000820875168,
                    1
                ],
                "metallicFactor" : 0,
                "roughnessFactor" : 0.5527864098548889
            }
        },
        {
            "doubleSided" : true,
            "name" : "Casa_01_Mat",
            "pbrMetallicRoughness" : {
                "baseColorFactor" : [
                    0.7020000219345093,
                    0.4865610599517822,
                    0.2611439824104309,
                    1
                ],
                "metallicFactor" : 0,
                "roughnessFactor" : 0.5527864098548889
            }
        },
        {
            "doubleSided" : true,
            "name" : "Mura_03_TileMat",
            "pbrMetallicRoughness" : {
                "metallicFactor" : 0,
                "roughnessFactor" : 0.5527864098548889
            }
        },
        {
            "doubleSided" : true,
            "name" : "RocciaMura_02_Mat",
            "pbrMetallicRoughness" : {
                "baseColorFactor" : [
                    0.21138212084770203,
                    0.21138212084770203,
                    0.21138212084770203,
                    1
                ],
                "metallicFactor" : 0,
                "roughnessFactor" : 0.5527864098548889
            }
        },
        {
            "doubleSided" : true,
            "name" : "Zone_Ombra_Mat",
            "pbrMetallicRoughness" : {
                "baseColorFactor" : [
                    0.02489626593887806,
                    0.02489626593887806,
                    0.02489626593887806,
                    1
                ],
                "metallicFactor" : 0,
                "roughnessFactor" : 0.5527864098548889
            }
        },
        {
            "doubleSided" : true,
            "name" : "Glass_01_Mat",
            "pbrMetallicRoughness" : {
                "baseColorFactor" : [
                    0.22436071932315826,
                    0.3029620051383972,
                    0.3475022614002228,
                    1
                ],
                "metallicFactor" : 0,
                "roughnessFactor" : 0.5527864098548889
            }
        }
    ],
    "meshes" : [
        {
            "name" : "\u041c\u0435\u0448",
            "primitives" : [
                {
                    "attributes" : {
                        "POSITION" : 0,
                        "NORMAL" : 1,
                        "TEXCOORD_0" : 2
                    },
                    "indices" : 3,
                    "material" : 0
                },
                {
                    "attributes" : {
                        "POSITION" : 4,
                        "NORMAL" : 5,
                        "TEXCOORD_0" : 6
                    },
                    "indices" : 7,
                    "material" : 1
                },
                {
                    "attributes" : {
                        "POSITION" : 8,
                        "NORMAL" : 9,
                        "TEXCOORD_0" : 10
                    },
                    "indices" : 11,
                    "material" : 2
                },
                {
                    "attributes" : {
                        "POSITION" : 12,
                        "NORMAL" : 13,
                        "TEXCOORD_0" : 14
                    },
                    "indices" : 15,
                    "material" : 3
                },
                {
                    "attributes" : {
                        "POSITION" : 16,
                        "NORMAL" : 17,
                        "TEXCOORD_0" : 18
                    },
                    "indices" : 19,
                    "material" : 4
                },
                {
                    "attributes" : {
                        "POSITION" : 20,
                        "NORMAL" : 21,
                        "TEXCOORD_0" : 22
                    },
                    "indices" : 23,
                    "material" : 5
                },
                {
                    "attributes" : {
                        "POSITION" : 24,
                        "NORMAL" : 25,
                        "TEXCOORD_0" : 26
                    },
                    "indices" : 27,
                    "material" : 6
                }
            ]
        }
    ],
    "accessors" : [
        {
            "bufferView" : 0,
            "componentType" : 5126,
            "count" : 843,
            "max" : [
                456.17041015625,
                479.4033203125,
                0
            ],
            "min" : [
                -456.17041015625,
                -479.403076171875,
                -710.28076171875
            ],
            "type" : "VEC3"
        },
        {
            "bufferView" : 1,
            "componentType" : 5126,
            "count" : 843,
            "type" : "VEC3"
        },
        {
            "bufferView" : 2,
            "componentType" : 5126,
            "count" : 843,
            "type" : "VEC2"
        },
        {
            "bufferView" : 3,
            "componentType" : 5123,
            "count" : 1296,
            "type" : "SCALAR"
        },
        {
            "bufferView" : 4,
            "componentType" : 5126,
            "count" : 96,
            "max" : [
                -363.326416015625,
                175.259033203125,
                -368.182373046875
            ],
            "min" : [
                -417.748046875,
                -204.269775390625,
                -542.3560791015625
            ],
            "type" : "VEC3"
        },
        {
            "bufferView" : 5,
            "componentType" : 5126,
            "count" : 96,
            "type" : "VEC3"
        },
        {
            "bufferView" : 6,
            "componentType" : 5126,
            "count" : 96,
            "type" : "VEC2"
        },
        {
            "bufferView" : 7,
            "componentType" : 5123,
            "count" : 144,
            "type" : "SCALAR"
        },
        {
            "bufferView" : 8,
            "componentType" : 5126,
            "count" : 138,
            "max" : [
                434.04638671875,
                446.27734375,
                -160.0655059814453
            ],
            "min" : [
                -434.60400390625,
                -449.08837890625,
                -667.498046875
            ],
            "type" : "VEC3"
        },
        {
            "bufferView" : 9,
            "componentType" : 5126,
            "count" : 138,
            "type" : "VEC3"
        },
        {
            "bufferView" : 10,
            "componentType" : 5126,
            "count" : 138,
            "type" : "VEC2"
        },
        {
            "bufferView" : 11,
            "componentType" : 5123,
            "count" : 300,
            "type" : "SCALAR"
        },
        {
            "bufferView" : 12,
            "componentType" : 5126,
            "count" : 50,
            "max" : [
                434.04638671875,
                414.31201171875,
                0
            ],
            "min" : [
                -352.095703125,
                -417.1255187988281,
                -1034.2291259765625
            ],
            "type" : "VEC3"
        },
        {
            "bufferView" : 13,
            "componentType" : 5126,
            "count" : 50,
            "type" : "VEC3"
        },
        {
            "bufferView" : 14,
            "componentType" : 5126,
            "count" : 50,
            "type" : "VEC2"
        },
        {
            "bufferView" : 15,
            "componentType" : 5123,
            "count" : 84,
            "type" : "SCALAR"
        },
        {
            "bufferView" : 16,
            "componentType" : 5126,
            "count" : 44,
            "max" : [
                47.67333984375,
                400.5712890625,
                -1029.583984375
            ],
            "min" : [
                -83.11083984375,
                269.7890625,
                -1098.7818603515625
            ],
            "type" : "VEC3"
        },
        {
            "bufferView" : 17,
            "componentType" : 5126,
            "count" : 44,
            "type" : "VEC3"
        },
        {
            "bufferView" : 18,
            "componentType" : 5126,
            "count" : 44,
            "type" : "VEC2"
        },
        {
            "bufferView" : 19,
            "componentType" : 5123,
            "count" : 78,
            "type" : "SCALAR"
        },
        {
            "bufferView" : 20,
            "componentType" : 5126,
            "count" : 4,
            "max" : [
                15.91357421875,
                368.8125,
                -1068.2364501953125
            ],
            "min" : [
                -51.35107421875,
                301.548828125,
                -1068.2364501953125
            ],
            "type" : "VEC3"
        },
        {
            "bufferView" : 21,
            "componentType" : 5126,
            "count" : 4,
            "type" : "VEC3"
        },
        {
            "bufferView" : 22,
            "componentType" : 5126,
            "count" : 4,
            "type" : "VEC2"
        },
        {
            "bufferView" : 23,
            "componentType" : 5123,
            "count" : 6,
            "type" : "SCALAR"
        },
        {
            "bufferView" : 24,
            "componentType" : 5126,
            "count" : 4,
            "max" : [
                -360.251220703125,
                102.318603515625,
                -366.2281799316406
            ],
            "min" : [
                -360.251708984375,
                -129.260009765625,
                -542.3560180664062
            ],
            "type" : "VEC3"
        },
        {
            "bufferView" : 25,
            "componentType" : 5126,
            "count" : 4,
            "type" : "VEC3"
        },
        {
            "bufferView" : 26,
            "componentType" : 5126,
            "count" : 4,
            "type" : "VEC2"
        },
        {
            "bufferView" : 27,
            "componentType" : 5123,
            "count" : 6,
            "type" : "SCALAR"
        }
    ],
    "bufferViews" : [
        {
            "buffer" : 0,
            "byteLength" : 10116,
            "byteOffset" : 0
        },
        {
            "buffer" : 0,
            "byteLength" : 10116,
            "byteOffset" : 10116
        },
        {
            "buffer" : 0,
            "byteLength" : 6744,
            "byteOffset" : 20232
        },
        {
            "buffer" : 0,
            "byteLength" : 2592,
            "byteOffset" : 26976
        },
        {
            "buffer" : 0,
            "byteLength" : 1152,
            "byteOffset" : 29568
        },
        {
            "buffer" : 0,
            "byteLength" : 1152,
            "byteOffset" : 30720
        },
        {
            "buffer" : 0,
            "byteLength" : 768,
            "byteOffset" : 31872
        },
        {
            "buffer" : 0,
            "byteLength" : 288,
            "byteOffset" : 32640
        },
        {
            "buffer" : 0,
            "byteLength" : 1656,
            "byteOffset" : 32928
        },
        {
            "buffer" : 0,
            "byteLength" : 1656,
            "byteOffset" : 34584
        },
        {
            "buffer" : 0,
            "byteLength" : 1104,
            "byteOffset" : 36240
        },
        {
            "buffer" : 0,
            "byteLength" : 600,
            "byteOffset" : 37344
        },
        {
            "buffer" : 0,
            "byteLength" : 600,
            "byteOffset" : 37944
        },
        {
            "buffer" : 0,
            "byteLength" : 600,
            "byteOffset" : 38544
        },
        {
            "buffer" : 0,
            "byteLength" : 400,
            "byteOffset" : 39144
        },
        {
            "buffer" : 0,
            "byteLength" : 168,
            "byteOffset" : 39544
        },
        {
            "buffer" : 0,
            "byteLength" : 528,
            "byteOffset" : 39712
        },
        {
            "buffer" : 0,
            "byteLength" : 528,
            "byteOffset" : 40240
        },
        {
            "buffer" : 0,
            "byteLength" : 352,
            "byteOffset" : 40768
        },
        {
            "buffer" : 0,
            "byteLength" : 156,
            "byteOffset" : 41120
        },
        {
            "buffer" : 0,
            "byteLength" : 48,
            "byteOffset" : 41276
        },
        {
            "buffer" : 0,
            "byteLength" : 48,
            "byteOffset" : 41324
        },
        {
            "buffer" : 0,
            "byteLength" : 32,
            "byteOffset" : 41372
        },
        {
            "buffer" : 0,
            "byteLength" : 12,
            "byteOffset" : 41404
        },
        {
            "buffer" : 0,
            "byteLength" : 48,
            "byteOffset" : 41416
        },
        {
            "buffer" : 0,
            "byteLength" : 48,
            "byteOffset" : 41464
        },
        {
            "buffer" : 0,
            "byteLength" : 32,
            "byteOffset" : 41512
        },
        {
            "buffer" : 0,
            "byteLength" : 12,
            "byteOffset" : 41544
        }
    ],
    "buffers" : [
        {
            "byteLength" : 41556,
            "uri" : "data:application/octet-stream;base64,"
        }
    ]
}
