{
    "asset" : {
        "generator" : "Khronos glTF Blender I/O v1.5.17",
        "version" : "2.0"
    },
    "scene" : 0,
    "scenes" : [
        {
            "name" : "Scene",
            "nodes" : [
                0
            ]
        }
    ],
    "nodes" : [
        {
            "mesh" : 0,
            "name" : "pCube3656",
            "rotation" : [
                0.7071068286895752,
                0,
                0,
                0.7071067094802856
            ],
            "scale" : [
                0.009999999776482582,
                0.009999999776482582,
                0.009999999776482582
            ]
        }
    ],
    "materials" : [
        {
            "doubleSided" : true,
            "name" : "Legno02_Mat.001",
            "pbrMetallicRoughness" : {
                "baseColorFactor" : [
                    0.421999990940094,
                    0.2647548019886017,
                    0.12997600436210632,
                    1
                ],
                "metallicFactor" : 0,
                "roughnessFactor" : 0.5527864098548889
            }
        },
        {
            "doubleSided" : true,
            "name" : "Legno01_Mat.001",
            "pbrMetallicRoughness" : {
                "baseColorFactor" : [
                    0.23800000548362732,
                    0.15777572989463806,
                    0.09758000820875168,
                    1
                ],
                "metallicFactor" : 0,
                "roughnessFactor" : 0.5527864098548889
            }
        },
        {
            "doubleSided" : true,
            "name" : "Casa_01_Mat.001",
            "pbrMetallicRoughness" : {
                "baseColorFactor" : [
                    0.7020000219345093,
                    0.4865610599517822,
                    0.2611439824104309,
                    1
                ],
                "metallicFactor" : 0,
                "roughnessFactor" : 0.5527864098548889
            }
        },
        {
            "doubleSided" : true,
            "name" : "Mura_03_TileMat.001",
            "pbrMetallicRoughness" : {
                "metallicFactor" : 0,
                "roughnessFactor" : 0.5527864098548889
            }
        },
        {
            "doubleSided" : true,
            "name" : "RocciaMura_02_Mat.001",
            "pbrMetallicRoughness" : {
                "baseColorFactor" : [
                    0.21138212084770203,
                    0.21138212084770203,
                    0.21138212084770203,
                    1
                ],
                "metallicFactor" : 0,
                "roughnessFactor" : 0.5527864098548889
            }
        },
        {
            "doubleSided" : true,
            "name" : "Zone_Ombra_Mat.001",
            "pbrMetallicRoughness" : {
                "baseColorFactor" : [
                    0.02489626593887806,
                    0.02489626593887806,
                    0.02489626593887806,
                    1
                ],
                "metallicFactor" : 0,
                "roughnessFactor" : 0.5527864098548889
            }
        },
        {
            "doubleSided" : true,
            "name" : "Glass_01_Mat.001",
            "pbrMetallicRoughness" : {
                "baseColorFactor" : [
                    0.22436071932315826,
                    0.3029620051383972,
                    0.3475022614002228,
                    1
                ],
                "metallicFactor" : 0,
                "roughnessFactor" : 0.5527864098548889
            }
        }
    ],
    "meshes" : [
        {
            "name" : "\u041c\u0435\u0448.001",
            "primitives" : [
                {
                    "attributes" : {
                        "POSITION" : 0,
                        "NORMAL" : 1,
                        "TEXCOORD_0" : 2
                    },
                    "indices" : 3,
                    "material" : 0
                },
                {
                    "attributes" : {
                        "POSITION" : 4,
                        "NORMAL" : 5,
                        "TEXCOORD_0" : 6
                    },
                    "indices" : 7,
                    "material" : 1
                },
                {
                    "attributes" : {
                        "POSITION" : 8,
                        "NORMAL" : 9,
                        "TEXCOORD_0" : 10
                    },
                    "indices" : 11,
                    "material" : 2
                },
                {
                    "attributes" : {
                        "POSITION" : 12,
                        "NORMAL" : 13,
                        "TEXCOORD_0" : 14
                    },
                    "indices" : 15,
                    "material" : 3
                },
                {
                    "attributes" : {
                        "POSITION" : 16,
                        "NORMAL" : 17,
                        "TEXCOORD_0" : 18
                    },
                    "indices" : 19,
                    "material" : 4
                },
                {
                    "attributes" : {
                        "POSITION" : 20,
                        "NORMAL" : 21,
                        "TEXCOORD_0" : 22
                    },
                    "indices" : 23,
                    "material" : 5
                },
                {
                    "attributes" : {
                        "POSITION" : 24,
                        "NORMAL" : 25,
                        "TEXCOORD_0" : 26
                    },
                    "indices" : 27,
                    "material" : 6
                }
            ]
        }
    ],
    "accessors" : [
        {
            "bufferView" : 0,
            "componentType" : 5126,
            "count" : 704,
            "max" : [
                479.40380859375,
                252.50924682617188,
                0
            ],
            "min" : [
                -479.40380859375,
                -252.50930786132812,
                -758.3148193359375
            ],
            "type" : "VEC3"
        },
        {
            "bufferView" : 1,
            "componentType" : 5126,
            "count" : 704,
            "type" : "VEC3"
        },
        {
            "bufferView" : 2,
            "componentType" : 5126,
            "count" : 704,
            "type" : "VEC2"
        },
        {
            "bufferView" : 3,
            "componentType" : 5123,
            "count" : 1074,
            "type" : "SCALAR"
        },
        {
            "bufferView" : 4,
            "componentType" : 5126,
            "count" : 48,
            "max" : [
                -124.43359375,
                208.15878295898438,
                -334.93017578125
            ],
            "min" : [
                -266.09619140625,
                155.32797241210938,
                -475.0425109863281
            ],
            "type" : "VEC3"
        },
        {
            "bufferView" : 5,
            "componentType" : 5126,
            "count" : 48,
            "type" : "VEC3"
        },
        {
            "bufferView" : 6,
            "componentType" : 5126,
            "count" : 48,
            "type" : "VEC2"
        },
        {
            "bufferView" : 7,
            "componentType" : 5123,
            "count" : 72,
            "type" : "SCALAR"
        },
        {
            "bufferView" : 8,
            "componentType" : 5126,
            "count" : 112,
            "max" : [
                446.2763671875,
                220.50045776367188,
                -160.0655059814453
            ],
            "min" : [
                -449.08935546875,
                -230.38528442382812,
                -667.498046875
            ],
            "type" : "VEC3"
        },
        {
            "bufferView" : 9,
            "componentType" : 5126,
            "count" : 112,
            "type" : "VEC3"
        },
        {
            "bufferView" : 10,
            "componentType" : 5126,
            "count" : 112,
            "type" : "VEC2"
        },
        {
            "bufferView" : 11,
            "componentType" : 5123,
            "count" : 258,
            "type" : "SCALAR"
        },
        {
            "bufferView" : 12,
            "componentType" : 5126,
            "count" : 47,
            "max" : [
                414.31201171875,
                151.49069213867188,
                0
            ],
            "min" : [
                -417.12646484375,
                -230.38528442382812,
                -749.1824951171875
            ],
            "type" : "VEC3"
        },
        {
            "bufferView" : 13,
            "componentType" : 5126,
            "count" : 47,
            "type" : "VEC3"
        },
        {
            "bufferView" : 14,
            "componentType" : 5126,
            "count" : 47,
            "type" : "VEC2"
        },
        {
            "bufferView" : 15,
            "componentType" : 5123,
            "count" : 75,
            "type" : "SCALAR"
        },
        {
            "bufferView" : 16,
            "componentType" : 5126,
            "count" : 44,
            "max" : [
                369.684814453125,
                2.812713623046875,
                -744.5374145507812
            ],
            "min" : [
                238.902587890625,
                -127.97122192382812,
                -813.7353515625
            ],
            "type" : "VEC3"
        },
        {
            "bufferView" : 17,
            "componentType" : 5126,
            "count" : 44,
            "type" : "VEC3"
        },
        {
            "bufferView" : 18,
            "componentType" : 5126,
            "count" : 44,
            "type" : "VEC2"
        },
        {
            "bufferView" : 19,
            "componentType" : 5123,
            "count" : 78,
            "type" : "SCALAR"
        },
        {
            "bufferView" : 20,
            "componentType" : 5126,
            "count" : 4,
            "max" : [
                337.92578125,
                -28.947052001953125,
                -783.1900024414062
            ],
            "min" : [
                270.662109375,
                -96.21194458007812,
                -783.1900024414062
            ],
            "type" : "VEC3"
        },
        {
            "bufferView" : 21,
            "componentType" : 5126,
            "count" : 4,
            "type" : "VEC3"
        },
        {
            "bufferView" : 22,
            "componentType" : 5126,
            "count" : 4,
            "type" : "VEC2"
        },
        {
            "bufferView" : 23,
            "componentType" : 5123,
            "count" : 6,
            "type" : "SCALAR"
        },
        {
            "bufferView" : 24,
            "componentType" : 5126,
            "count" : 4,
            "max" : [
                -152.2841796875,
                152.96286010742188,
                -332.9759826660156
            ],
            "min" : [
                -237.04345703125,
                152.96286010742188,
                -475.0425109863281
            ],
            "type" : "VEC3"
        },
        {
            "bufferView" : 25,
            "componentType" : 5126,
            "count" : 4,
            "type" : "VEC3"
        },
        {
            "bufferView" : 26,
            "componentType" : 5126,
            "count" : 4,
            "type" : "VEC2"
        },
        {
            "bufferView" : 27,
            "componentType" : 5123,
            "count" : 6,
            "type" : "SCALAR"
        }
    ],
    "bufferViews" : [
        {
            "buffer" : 0,
            "byteLength" : 8448,
            "byteOffset" : 0
        },
        {
            "buffer" : 0,
            "byteLength" : 8448,
            "byteOffset" : 8448
        },
        {
            "buffer" : 0,
            "byteLength" : 5632,
            "byteOffset" : 16896
        },
        {
            "buffer" : 0,
            "byteLength" : 2148,
            "byteOffset" : 22528
        },
        {
            "buffer" : 0,
            "byteLength" : 576,
            "byteOffset" : 24676
        },
        {
            "buffer" : 0,
            "byteLength" : 576,
            "byteOffset" : 25252
        },
        {
            "buffer" : 0,
            "byteLength" : 384,
            "byteOffset" : 25828
        },
        {
            "buffer" : 0,
            "byteLength" : 144,
            "byteOffset" : 26212
        },
        {
            "buffer" : 0,
            "byteLength" : 1344,
            "byteOffset" : 26356
        },
        {
            "buffer" : 0,
            "byteLength" : 1344,
            "byteOffset" : 27700
        },
        {
            "buffer" : 0,
            "byteLength" : 896,
            "byteOffset" : 29044
        },
        {
            "buffer" : 0,
            "byteLength" : 516,
            "byteOffset" : 29940
        },
        {
            "buffer" : 0,
            "byteLength" : 564,
            "byteOffset" : 30456
        },
        {
            "buffer" : 0,
            "byteLength" : 564,
            "byteOffset" : 31020
        },
        {
            "buffer" : 0,
            "byteLength" : 376,
            "byteOffset" : 31584
        },
        {
            "buffer" : 0,
            "byteLength" : 150,
            "byteOffset" : 31960
        },
        {
            "buffer" : 0,
            "byteLength" : 528,
            "byteOffset" : 32112
        },
        {
            "buffer" : 0,
            "byteLength" : 528,
            "byteOffset" : 32640
        },
        {
            "buffer" : 0,
            "byteLength" : 352,
            "byteOffset" : 33168
        },
        {
            "buffer" : 0,
            "byteLength" : 156,
            "byteOffset" : 33520
        },
        {
            "buffer" : 0,
            "byteLength" : 48,
            "byteOffset" : 33676
        },
        {
            "buffer" : 0,
            "byteLength" : 48,
            "byteOffset" : 33724
        },
        {
            "buffer" : 0,
            "byteLength" : 32,
            "byteOffset" : 33772
        },
        {
            "buffer" : 0,
            "byteLength" : 12,
            "byteOffset" : 33804
        },
        {
            "buffer" : 0,
            "byteLength" : 48,
            "byteOffset" : 33816
        },
        {
            "buffer" : 0,
            "byteLength" : 48,
            "byteOffset" : 33864
        },
        {
            "buffer" : 0,
            "byteLength" : 32,
            "byteOffset" : 33912
        },
        {
            "buffer" : 0,
            "byteLength" : 12,
            "byteOffset" : 33944
        }
    ],
    "buffers" : [
        {
            "byteLength" : 33956,
            "uri" : "data:application/octet-stream;base64,"
        }
    ]
}
